<mxfile host="65bd71144e" modified="2021-01-13T02:32:06.769Z" agent="5.0 (Windows NT 10.0; Win64; x64) AppleWebKit/537.36 (KHTML, like Gecko) Code/1.52.1 Chrome/83.0.4103.122 Electron/9.3.5 Safari/537.36" version="13.10.0" etag="OrMKNx33jt1PEg8JHUCU" type="embed">
    <diagram id="KYeWv1Aznrd_j2zLk49y" name="Page-1">
        <mxGraphModel dx="1363" dy="678" grid="1" gridSize="10" guides="1" tooltips="1" connect="1" arrows="1" fold="1" page="0" pageScale="1" pageWidth="827" pageHeight="1169" background="#ffffff" math="0" shadow="1">
            <root>
                <mxCell id="0"/>
                <mxCell id="1" parent="0"/>
                <mxCell id="16" style="sketch=0;orthogonalLoop=1;jettySize=auto;html=1;entryX=0;entryY=0.5;entryDx=0;entryDy=0;strokeColor=#006658;fillColor=#21C0A5;fontColor=#5C5C5C;" edge="1" parent="1" source="2" target="4">
                    <mxGeometry relative="1" as="geometry"/>
                </mxCell>
                <mxCell id="17" style="sketch=0;orthogonalLoop=1;jettySize=auto;html=1;strokeColor=#006658;fillColor=#21C0A5;fontColor=#5C5C5C;" edge="1" parent="1" source="2" target="7">
                    <mxGeometry relative="1" as="geometry"/>
                </mxCell>
                <mxCell id="18" style="sketch=0;orthogonalLoop=1;jettySize=auto;html=1;entryX=0.028;entryY=0.343;entryDx=0;entryDy=0;entryPerimeter=0;strokeColor=#006658;fillColor=#21C0A5;fontColor=#5C5C5C;" edge="1" parent="1" source="2" target="10">
                    <mxGeometry relative="1" as="geometry"/>
                </mxCell>
                <mxCell id="2" value="&lt;font style=&quot;font-size: 16px&quot;&gt;Web surfer&lt;/font&gt;" style="shape=umlActor;verticalLabelPosition=bottom;verticalAlign=top;html=1;sketch=0;strokeColor=#006658;fillColor=#21C0A5;fontColor=#5C5C5C;rounded=1;" vertex="1" parent="1">
                    <mxGeometry x="-60" y="130" width="30" height="60" as="geometry"/>
                </mxCell>
                <mxCell id="34" style="sketch=0;orthogonalLoop=1;jettySize=auto;html=1;entryX=0;entryY=0.5;entryDx=0;entryDy=0;startArrow=none;startFill=0;endArrow=classicThin;endFill=1;strokeColor=#006658;fillColor=#21C0A5;fontColor=#5C5C5C;" edge="1" parent="1" source="3" target="6">
                    <mxGeometry relative="1" as="geometry">
                        <mxPoint x="90" y="1035" as="sourcePoint"/>
                        <Array as="points">
                            <mxPoint x="300" y="1000"/>
                        </Array>
                    </mxGeometry>
                </mxCell>
                <mxCell id="37" style="sketch=0;orthogonalLoop=1;jettySize=auto;html=1;startArrow=none;startFill=0;endArrow=classicThin;endFill=1;strokeColor=#006658;fillColor=#21C0A5;fontColor=#5C5C5C;" edge="1" parent="1" source="3" target="5">
                    <mxGeometry relative="1" as="geometry">
                        <mxPoint x="80" y="1035" as="sourcePoint"/>
                        <Array as="points">
                            <mxPoint x="510" y="1030"/>
                        </Array>
                    </mxGeometry>
                </mxCell>
                <mxCell id="43" style="sketch=0;orthogonalLoop=1;jettySize=auto;html=1;entryX=0;entryY=0.5;entryDx=0;entryDy=0;startArrow=none;startFill=0;endArrow=classicThin;endFill=1;strokeColor=#006658;fillColor=#21C0A5;fontColor=#5C5C5C;" edge="1" parent="1" source="3" target="11">
                    <mxGeometry relative="1" as="geometry"/>
                </mxCell>
                <mxCell id="57" style="sketch=0;orthogonalLoop=1;jettySize=auto;html=1;startArrow=none;startFill=0;endArrow=block;endFill=0;strokeColor=#006658;fillColor=#21C0A5;fontColor=#5C5C5C;" edge="1" parent="1" source="3" target="2">
                    <mxGeometry relative="1" as="geometry"/>
                </mxCell>
                <mxCell id="3" value="Registred User" style="shape=umlActor;verticalLabelPosition=bottom;verticalAlign=top;html=1;sketch=0;strokeColor=#006658;fillColor=#21C0A5;fontColor=#5C5C5C;rounded=1;" vertex="1" parent="1">
                    <mxGeometry x="-60" y="1008" width="30" height="60" as="geometry"/>
                </mxCell>
                <mxCell id="4" value="&lt;font style=&quot;font-size: 15px&quot; color=&quot;#ffffff&quot;&gt;explore city's reports&lt;/font&gt;" style="ellipse;whiteSpace=wrap;html=1;sketch=0;strokeColor=#006658;fillColor=#21C0A5;fontColor=#5C5C5C;rounded=1;" vertex="1" parent="1">
                    <mxGeometry x="330" y="20" width="120" height="80" as="geometry"/>
                </mxCell>
                <mxCell id="32" style="sketch=0;orthogonalLoop=1;jettySize=auto;html=1;dashed=1;startArrow=none;startFill=0;endArrow=block;endFill=0;strokeColor=#006658;fillColor=#21C0A5;fontColor=#5C5C5C;strokeWidth=2;" edge="1" parent="1" source="5" target="10">
                    <mxGeometry relative="1" as="geometry">
                        <Array as="points">
                            <mxPoint x="730" y="946"/>
                        </Array>
                    </mxGeometry>
                </mxCell>
                <mxCell id="55" style="sketch=0;orthogonalLoop=1;jettySize=auto;html=1;dashed=1;startArrow=none;startFill=0;endArrow=open;endFill=0;strokeColor=#006658;fillColor=#21C0A5;fontColor=#5C5C5C;entryX=0.936;entryY=0.171;entryDx=0;entryDy=0;exitX=0.598;exitY=1.019;exitDx=0;exitDy=0;exitPerimeter=0;strokeWidth=2;entryPerimeter=0;" edge="1" parent="1" source="5" target="72">
                    <mxGeometry relative="1" as="geometry">
                        <mxPoint x="580" y="1250" as="targetPoint"/>
                        <mxPoint x="590" y="1000" as="sourcePoint"/>
                    </mxGeometry>
                </mxCell>
                <mxCell id="5" value="&lt;font style=&quot;font-size: 15px&quot; color=&quot;#ffffff&quot;&gt;report found doc&lt;/font&gt;" style="ellipse;whiteSpace=wrap;html=1;sketch=0;strokeColor=#006658;fillColor=#21C0A5;fontColor=#5C5C5C;rounded=1;" vertex="1" parent="1">
                    <mxGeometry x="530" y="915" width="120" height="80" as="geometry"/>
                </mxCell>
                <mxCell id="30" style="sketch=0;orthogonalLoop=1;jettySize=auto;html=1;entryX=0.358;entryY=0.974;entryDx=0;entryDy=0;entryPerimeter=0;dashed=1;startArrow=none;startFill=0;endArrow=block;endFill=0;strokeColor=#006658;fillColor=#21C0A5;fontColor=#5C5C5C;strokeWidth=2;" edge="1" parent="1" source="6" target="10">
                    <mxGeometry relative="1" as="geometry">
                        <mxPoint x="390" y="921" as="sourcePoint"/>
                        <Array as="points">
                            <mxPoint x="690" y="830"/>
                        </Array>
                    </mxGeometry>
                </mxCell>
                <mxCell id="78" style="sketch=0;orthogonalLoop=1;jettySize=auto;html=1;entryX=0;entryY=0;entryDx=0;entryDy=0;dashed=1;endArrow=block;endFill=0;strokeColor=#006658;fillColor=#21C0A5;fontColor=#5C5C5C;strokeWidth=2;" edge="1" parent="1" source="7" target="6">
                    <mxGeometry relative="1" as="geometry">
                        <Array as="points">
                            <mxPoint x="150" y="290"/>
                            <mxPoint x="150" y="680"/>
                        </Array>
                    </mxGeometry>
                </mxCell>
                <mxCell id="7" value="&lt;font style=&quot;font-size: 15px&quot; color=&quot;#ffffff&quot;&gt;search for docs&lt;/font&gt;" style="ellipse;whiteSpace=wrap;html=1;sketch=0;strokeColor=#006658;fillColor=#21C0A5;fontColor=#5C5C5C;rounded=1;" vertex="1" parent="1">
                    <mxGeometry x="330" y="170" width="120" height="80" as="geometry"/>
                </mxCell>
                <mxCell id="38" style="sketch=0;orthogonalLoop=1;jettySize=auto;html=1;entryX=0.5;entryY=0;entryDx=0;entryDy=0;startArrow=open;startFill=0;endArrow=none;endFill=0;strokeColor=#006658;fillColor=#21C0A5;fontColor=#5C5C5C;dashed=1;strokeWidth=2;" edge="1" parent="1" source="8" target="9">
                    <mxGeometry relative="1" as="geometry"/>
                </mxCell>
                <mxCell id="40" style="edgeStyle=orthogonalEdgeStyle;sketch=0;orthogonalLoop=1;jettySize=auto;html=1;entryX=0.417;entryY=0.063;entryDx=0;entryDy=0;entryPerimeter=0;startArrow=open;startFill=0;endArrow=none;endFill=0;strokeColor=#006658;fillColor=#21C0A5;fontColor=#5C5C5C;dashed=1;strokeWidth=2;curved=1;" edge="1" parent="1" source="8" target="6">
                    <mxGeometry relative="1" as="geometry"/>
                </mxCell>
                <mxCell id="41" style="sketch=0;orthogonalLoop=1;jettySize=auto;html=1;startArrow=open;startFill=0;endArrow=none;endFill=0;strokeColor=#006658;fillColor=#21C0A5;fontColor=#5C5C5C;dashed=1;strokeWidth=2;" edge="1" parent="1" source="8">
                    <mxGeometry relative="1" as="geometry">
                        <mxPoint x="570" y="915" as="targetPoint"/>
                    </mxGeometry>
                </mxCell>
                <mxCell id="8" value="&lt;font color=&quot;#ffffff&quot;&gt;&lt;span style=&quot;font-size: 15px&quot;&gt;sign in&lt;/span&gt;&lt;/font&gt;" style="ellipse;whiteSpace=wrap;html=1;sketch=0;strokeColor=#006658;fillColor=#21C0A5;fontColor=#5C5C5C;rounded=1;" vertex="1" parent="1">
                    <mxGeometry x="330" y="700" width="120" height="80" as="geometry"/>
                </mxCell>
                <mxCell id="9" value="&lt;font color=&quot;#ffffff&quot;&gt;&lt;span style=&quot;font-size: 15px&quot;&gt;start conversations&lt;/span&gt;&lt;/font&gt;" style="ellipse;whiteSpace=wrap;html=1;sketch=0;strokeColor=#006658;fillColor=#21C0A5;fontColor=#5C5C5C;rounded=1;" vertex="1" parent="1">
                    <mxGeometry x="170" y="910" width="120" height="80" as="geometry"/>
                </mxCell>
                <mxCell id="10" value="&lt;font style=&quot;font-size: 15px&quot; color=&quot;#ffffff&quot;&gt;sign up&lt;/font&gt;" style="ellipse;whiteSpace=wrap;html=1;sketch=0;strokeColor=#006658;fillColor=#21C0A5;fontColor=#5C5C5C;rounded=1;" vertex="1" parent="1">
                    <mxGeometry x="660" y="110" width="120" height="80" as="geometry"/>
                </mxCell>
                <mxCell id="28" style="edgeStyle=orthogonalEdgeStyle;sketch=0;orthogonalLoop=1;jettySize=auto;html=1;dashed=1;startArrow=none;startFill=0;endArrow=open;endFill=0;strokeColor=#006658;fillColor=#21C0A5;fontColor=#5C5C5C;strokeWidth=2;curved=1;" edge="1" parent="1" source="11" target="8">
                    <mxGeometry relative="1" as="geometry">
                        <mxPoint x="890" y="1025" as="targetPoint"/>
                    </mxGeometry>
                </mxCell>
                <mxCell id="11" value="&lt;font color=&quot;#ffffff&quot;&gt;&lt;span style=&quot;font-size: 15px&quot;&gt;manage report&lt;/span&gt;&lt;/font&gt;" style="ellipse;whiteSpace=wrap;html=1;sketch=0;strokeColor=#006658;fillColor=#21C0A5;fontColor=#5C5C5C;rounded=1;" vertex="1" parent="1">
                    <mxGeometry x="330" y="530" width="120" height="80" as="geometry"/>
                </mxCell>
                <mxCell id="42" style="sketch=0;orthogonalLoop=1;jettySize=auto;html=1;entryX=0;entryY=0.5;entryDx=0;entryDy=0;startArrow=none;startFill=0;endArrow=classicThin;endFill=1;strokeColor=#006658;fillColor=#21C0A5;fontColor=#5C5C5C;" edge="1" parent="1" source="12" target="13">
                    <mxGeometry relative="1" as="geometry"/>
                </mxCell>
                <mxCell id="12" value="&lt;font style=&quot;font-size: 16px&quot;&gt;Wriquati System&lt;/font&gt;" style="whiteSpace=wrap;html=1;sketch=0;strokeColor=#006658;fontColor=#5C5C5C;fillColor=none;rounded=1;" vertex="1" parent="1">
                    <mxGeometry x="-90" y="1180" width="90" height="60" as="geometry"/>
                </mxCell>
                <mxCell id="73" style="sketch=0;orthogonalLoop=1;jettySize=auto;html=1;startArrow=open;startFill=0;endArrow=none;endFill=0;strokeColor=#006658;strokeWidth=2;fillColor=#21C0A5;fontColor=#5C5C5C;dashed=1;" edge="1" parent="1" source="13" target="9">
                    <mxGeometry relative="1" as="geometry"/>
                </mxCell>
                <mxCell id="75" style="edgeStyle=orthogonalEdgeStyle;curved=0;sketch=0;orthogonalLoop=1;jettySize=auto;html=1;strokeColor=#006658;fillColor=#21C0A5;fontColor=#5C5C5C;endArrow=block;endFill=0;dashed=1;entryX=1.01;entryY=0.638;entryDx=0;entryDy=0;entryPerimeter=0;strokeWidth=2;" edge="1" parent="1" source="13" target="7">
                    <mxGeometry relative="1" as="geometry">
                        <Array as="points">
                            <mxPoint x="790" y="1210"/>
                            <mxPoint x="790" y="230"/>
                            <mxPoint x="451" y="230"/>
                        </Array>
                    </mxGeometry>
                </mxCell>
                <mxCell id="13" value="&lt;font color=&quot;#ffffff&quot;&gt;&lt;span style=&quot;font-size: 15px&quot;&gt;send an email and sms&amp;nbsp;&lt;/span&gt;&lt;/font&gt;" style="ellipse;whiteSpace=wrap;html=1;sketch=0;strokeColor=#006658;fillColor=#21C0A5;fontColor=#5C5C5C;rounded=1;" vertex="1" parent="1">
                    <mxGeometry x="330" y="1170" width="120" height="80" as="geometry"/>
                </mxCell>
                <mxCell id="6" value="&lt;font style=&quot;font-size: 15px&quot; color=&quot;#ffffff&quot;&gt;report doc loss&lt;/font&gt;" style="ellipse;whiteSpace=wrap;html=1;sketch=0;strokeColor=#006658;fillColor=#21C0A5;fontColor=#5C5C5C;rounded=1;" vertex="1" parent="1">
                    <mxGeometry x="340" y="920" width="120" height="80" as="geometry"/>
                </mxCell>
                <mxCell id="44" value="&lt;font style=&quot;font-size: 14px&quot;&gt;&amp;lt;includes&amp;gt;&lt;/font&gt;" style="text;html=1;align=center;verticalAlign=middle;resizable=0;points=[];autosize=1;fontColor=#5C5C5C;rounded=1;" vertex="1" parent="1">
                    <mxGeometry x="390" y="640" width="80" height="20" as="geometry"/>
                </mxCell>
                <mxCell id="49" value="&lt;font style=&quot;font-size: 14px&quot;&gt;&amp;lt;includes&amp;gt;&lt;/font&gt;" style="text;html=1;align=center;verticalAlign=middle;resizable=0;points=[];autosize=1;fontColor=#5C5C5C;rounded=1;" vertex="1" parent="1">
                    <mxGeometry x="180" y="860" width="80" height="20" as="geometry"/>
                </mxCell>
                <mxCell id="50" value="&lt;font style=&quot;font-size: 14px&quot;&gt;&amp;lt;includes&amp;gt;&lt;/font&gt;" style="text;html=1;align=center;verticalAlign=middle;resizable=0;points=[];autosize=1;fontColor=#5C5C5C;rounded=1;" vertex="1" parent="1">
                    <mxGeometry x="500" y="820" width="80" height="20" as="geometry"/>
                </mxCell>
                <mxCell id="51" value="&lt;font style=&quot;font-size: 14px&quot;&gt;&amp;lt;includes&amp;gt;&lt;/font&gt;" style="text;html=1;align=center;verticalAlign=middle;resizable=0;points=[];autosize=1;fontColor=#5C5C5C;rounded=1;" vertex="1" parent="1">
                    <mxGeometry x="390" y="820" width="80" height="20" as="geometry"/>
                </mxCell>
                <mxCell id="52" value="&lt;span style=&quot;font-size: 14px&quot;&gt;&amp;lt;extends&amp;gt;&lt;/span&gt;" style="text;html=1;align=center;verticalAlign=middle;resizable=0;points=[];autosize=1;fontColor=#5C5C5C;strokeWidth=5;rounded=1;" vertex="1" parent="1">
                    <mxGeometry x="610" y="350" width="80" height="20" as="geometry"/>
                </mxCell>
                <mxCell id="53" value="&lt;span style=&quot;font-size: 14px&quot;&gt;&amp;lt;extends&amp;gt;&lt;/span&gt;" style="text;html=1;align=center;verticalAlign=middle;resizable=0;points=[];autosize=1;fontColor=#5C5C5C;rounded=1;" vertex="1" parent="1">
                    <mxGeometry x="720" y="350" width="80" height="20" as="geometry"/>
                </mxCell>
                <mxCell id="56" value="&lt;font style=&quot;font-size: 14px&quot;&gt;&amp;lt;includes&amp;gt;&lt;/font&gt;" style="text;html=1;align=center;verticalAlign=middle;resizable=0;points=[];autosize=1;fontColor=#5C5C5C;rounded=1;" vertex="1" parent="1">
                    <mxGeometry x="500" y="1100" width="80" height="20" as="geometry"/>
                </mxCell>
                <mxCell id="66" style="sketch=0;orthogonalLoop=1;jettySize=auto;html=1;startArrow=none;startFill=0;endArrow=block;endFill=0;strokeColor=#006658;strokeWidth=2;fillColor=#21C0A5;fontColor=#5C5C5C;curved=1;" edge="1" parent="1" source="60" target="11">
                    <mxGeometry relative="1" as="geometry"/>
                </mxCell>
                <mxCell id="60" value="&lt;font color=&quot;#ffffff&quot;&gt;&lt;span style=&quot;font-size: 15px&quot;&gt;edit report&lt;/span&gt;&lt;/font&gt;" style="ellipse;whiteSpace=wrap;html=1;sketch=0;strokeColor=#006658;fillColor=#21C0A5;fontColor=#5C5C5C;rounded=1;" vertex="1" parent="1">
                    <mxGeometry x="230" y="420" width="120" height="80" as="geometry"/>
                </mxCell>
                <mxCell id="62" style="sketch=0;orthogonalLoop=1;jettySize=auto;html=1;startArrow=none;startFill=0;endArrow=open;endFill=0;strokeColor=#006658;fillColor=#21C0A5;fontColor=#5C5C5C;dashed=1;strokeWidth=2;entryX=0.928;entryY=0.216;entryDx=0;entryDy=0;entryPerimeter=0;" edge="1" parent="1" source="61" target="5">
                    <mxGeometry relative="1" as="geometry">
                        <mxPoint x="650" y="930" as="targetPoint"/>
                    </mxGeometry>
                </mxCell>
                <mxCell id="67" style="edgeStyle=none;sketch=0;orthogonalLoop=1;jettySize=auto;html=1;entryX=0.5;entryY=0;entryDx=0;entryDy=0;startArrow=none;startFill=0;endArrow=block;endFill=0;strokeColor=#006658;strokeWidth=2;fillColor=#21C0A5;fontColor=#5C5C5C;curved=1;" edge="1" parent="1" source="61" target="11">
                    <mxGeometry relative="1" as="geometry"/>
                </mxCell>
                <mxCell id="61" value="&lt;font color=&quot;#ffffff&quot;&gt;&lt;span style=&quot;font-size: 15px&quot;&gt;delete report&lt;/span&gt;&lt;/font&gt;" style="ellipse;whiteSpace=wrap;html=1;sketch=0;strokeColor=#006658;fillColor=#21C0A5;fontColor=#5C5C5C;rounded=1;" vertex="1" parent="1">
                    <mxGeometry x="410" y="420" width="120" height="80" as="geometry"/>
                </mxCell>
                <mxCell id="63" value="&lt;span style=&quot;font-size: 14px&quot;&gt;&amp;lt;extends&amp;gt;&lt;/span&gt;" style="text;html=1;align=center;verticalAlign=middle;resizable=0;points=[];autosize=1;fontColor=#5C5C5C;rounded=1;" vertex="1" parent="1">
                    <mxGeometry x="500" y="530" width="80" height="20" as="geometry"/>
                </mxCell>
                <mxCell id="69" style="sketch=0;orthogonalLoop=1;jettySize=auto;html=1;startArrow=none;startFill=0;endArrow=block;endFill=0;strokeColor=#006658;strokeWidth=2;fillColor=#21C0A5;fontColor=#5C5C5C;curved=1;exitX=0.556;exitY=-0.009;exitDx=0;exitDy=0;exitPerimeter=0;entryX=0.29;entryY=0.976;entryDx=0;entryDy=0;entryPerimeter=0;" edge="1" source="70" parent="1" target="13">
                    <mxGeometry relative="1" as="geometry">
                        <mxPoint x="378.9018970344007" y="1395.7920867378407" as="targetPoint"/>
                    </mxGeometry>
                </mxCell>
                <mxCell id="70" value="&lt;font color=&quot;#ffffff&quot;&gt;&lt;span style=&quot;font-size: 15px&quot;&gt;to finder&lt;/span&gt;&lt;/font&gt;" style="ellipse;whiteSpace=wrap;html=1;sketch=0;strokeColor=#006658;fillColor=#21C0A5;fontColor=#5C5C5C;rounded=1;" vertex="1" parent="1">
                    <mxGeometry x="250" y="1280" width="120" height="80" as="geometry"/>
                </mxCell>
                <mxCell id="71" style="edgeStyle=none;sketch=0;orthogonalLoop=1;jettySize=auto;html=1;startArrow=none;startFill=0;endArrow=block;endFill=0;strokeColor=#006658;strokeWidth=2;fillColor=#21C0A5;fontColor=#5C5C5C;curved=1;exitX=0.436;exitY=-0.024;exitDx=0;exitDy=0;exitPerimeter=0;" edge="1" source="72" parent="1" target="13">
                    <mxGeometry relative="1" as="geometry">
                        <mxPoint x="410" y="1390" as="targetPoint"/>
                    </mxGeometry>
                </mxCell>
                <mxCell id="72" value="&lt;font color=&quot;#ffffff&quot;&gt;&lt;span style=&quot;font-size: 15px&quot;&gt;to owner&lt;/span&gt;&lt;/font&gt;" style="ellipse;whiteSpace=wrap;html=1;sketch=0;strokeColor=#006658;fillColor=#21C0A5;fontColor=#5C5C5C;rounded=1;" vertex="1" parent="1">
                    <mxGeometry x="430" y="1280" width="120" height="80" as="geometry"/>
                </mxCell>
                <mxCell id="74" value="&lt;span style=&quot;font-size: 14px&quot;&gt;&amp;lt;extends&amp;gt;&lt;/span&gt;" style="text;html=1;align=center;verticalAlign=middle;resizable=0;points=[];autosize=1;fontColor=#5C5C5C;strokeWidth=5;rounded=1;" vertex="1" parent="1">
                    <mxGeometry x="230" y="1100" width="80" height="20" as="geometry"/>
                </mxCell>
                <mxCell id="77" value="&lt;span style=&quot;font-size: 14px&quot;&gt;&amp;lt;extends&amp;gt;&lt;/span&gt;" style="text;html=1;align=center;verticalAlign=middle;resizable=0;points=[];autosize=1;fontColor=#5C5C5C;rounded=1;" vertex="1" parent="1">
                    <mxGeometry x="800" y="530" width="80" height="20" as="geometry"/>
                </mxCell>
                <mxCell id="79" value="&lt;span style=&quot;font-size: 14px&quot;&gt;&amp;lt;extends&amp;gt;&lt;/span&gt;" style="text;html=1;align=center;verticalAlign=middle;resizable=0;points=[];autosize=1;fontColor=#5C5C5C;strokeWidth=5;rounded=1;" vertex="1" parent="1">
                    <mxGeometry x="150" y="350" width="80" height="20" as="geometry"/>
                </mxCell>
            </root>
        </mxGraphModel>
    </diagram>
</mxfile>